<?xml version="1.0" encoding="UTF-8" standalone="no"?>
<svg width="43px" height="42px" viewBox="0 0 43 42" version="1.1" xmlns="http://www.w3.org/2000/svg" xmlns:xlink="http://www.w3.org/1999/xlink" xmlns:sketch="http://www.bohemiancoding.com/sketch/ns">
    <!-- Generator: Sketch 3.3.3 (12081) - http://www.bohemiancoding.com/sketch -->
    <title>Rectangle 1</title>
    <desc>Created with Sketch.</desc>
    <defs></defs>
    <g id="Page-1" stroke="none" stroke-width="1" fill="none" fill-rule="evenodd" sketch:type="MSPage">
        <path d="M1,31.7378081 L1,41 L7.56381324,41 M8.71610129,41 L42,41 L42,30.9683302 M42,28.2752595 L42,11.048153 M42,9.28518036 L42,1 L27.3154411,1 M25.8655353,1 L12.9212295,1 M11.7689414,1 L1,1 L1,29.9748355 M12.9212295,1 L11.7689414,1 L9.15552272,25.8593489 M8.71610129,41 L7.56381324,41 L8.95980149,27.7210875 L10.1766435,27.1070377 L10.1766435,27.1070377 M42,28.2752595 L42,30.9683302 L42,30.9683302 L33.5665248,15.3039016 L34.7066725,14.7285537 M27.3154411,1 L25.8655353,1 L32.8201466,13.9175706 M33.9602943,13.3422227 L33.9602943,13.3422227 M1,31.7378081 L1,29.9748355 M9.15552272,25.8593489 L8.95980149,27.7210875 L1,31.7378081 L1,31.7378081 M42,9.28518036 L42,11.048153 L34.7066725,14.7285537 M10.1766435,27.1070377 L33.5665248,15.3039016 L32.8201466,13.9175706" id="Rectangle-1" stroke="#9F9162" stroke-width="2" sketch:type="MSShapeGroup"></path>
    </g>
</svg>