<?xml version="1.0" encoding="UTF-8" standalone="no"?>
<svg width="49px" height="42px" viewBox="0 0 49 42" version="1.1" xmlns="http://www.w3.org/2000/svg" xmlns:xlink="http://www.w3.org/1999/xlink" xmlns:sketch="http://www.bohemiancoding.com/sketch/ns">
    <!-- Generator: Sketch 3.3.3 (12081) - http://www.bohemiancoding.com/sketch -->
    <title>Triangle 1</title>
    <desc>Created with Sketch.</desc>
    <defs></defs>
    <g id="Page-1" stroke="none" stroke-width="1" fill="none" fill-rule="evenodd" sketch:type="MSPage">
        <path d="M11.0482595,24.9119208 L24.4702035,2 L31.0119355,13.1670594 L31.0119355,13.1670594 M11.0482595,24.9119208 L11.0482595,24.9119208 M38.5596335,26.0513524 L46.940407,40.3577462 L34.3992483,40.3577462 M52,52 L52,52 M27.5172704,35.8055695 L28.5948475,28.8250034 L20.4087731,31.1035584 L27.5172704,35.8055695 L27.5172704,35.8055695 L27.5172704,35.8055695 Z M38.5596335,26.0513524 L31.0119355,13.1670594 L28.5948475,28.8250034 L38.5596335,26.0513524 L38.5596335,26.0513524 Z M11.0482595,24.9119208 L4.89086673,35.4228941 M26.8145592,40.3577462 L2,40.3577462 L4.89086673,35.4228941 L20.4087731,31.1035584 L11.0482595,24.9119208 L11.0482595,24.9119208 M34.3992483,40.3577462 L26.8145592,40.3577462 L27.5172704,35.8055695 L34.3992483,40.3577462 L34.3992483,40.3577462 L34.3992483,40.3577462 Z" id="Triangle-1" stroke="#9F9162" stroke-width="2" sketch:type="MSShapeGroup"></path>
    </g>
</svg>