<?xml version="1.0" encoding="UTF-8" standalone="no"?>
<svg width="42px" height="44px" viewBox="0 0 42 44" version="1.1" xmlns="http://www.w3.org/2000/svg" xmlns:xlink="http://www.w3.org/1999/xlink" xmlns:sketch="http://www.bohemiancoding.com/sketch/ns">
    <!-- Generator: Sketch 3.3.3 (12081) - http://www.bohemiancoding.com/sketch -->
    <title>Polygon 1</title>
    <desc>Created with Sketch.</desc>
    <defs></defs>
    <g id="Page-1" stroke="none" stroke-width="1" fill="none" fill-rule="evenodd" sketch:type="MSPage">
        <path d="M11.3213242,9.51146722 L20.735943,2 L23.9883436,4.59493248 L23.9883436,4.59493248 M11.3213242,9.51146722 L11.3213242,9.51146722 M17.714222,14.0459356 L23.9883436,4.59493248 L23.9883436,4.59493248 L39.9013074,17.2911136 L39.6811669,18.0351341 L39.6811669,18.0351341 L31.3606437,23.7253125 L17.714222,14.0459356 L17.714222,14.0459356 Z M39.6811669,18.0351341 L36.8463018,27.6162777 M59,43.3298471 L59,43.3298471 M11.3213242,9.51146722 L1.57057863,17.2911136 L5.88337393,31.8672963 M-3,47.2236175 L-3,47.2236175 M-3,47.2236175 L-3,47.2236175 M8.16735022,39.5865719 L8.89109642,42.0326553 L32.5807896,42.0326553 L36.8463018,27.6162777 L31.3606437,23.7253125 L8.16735022,39.5865719 L5.88337393,31.8672963 L17.714222,14.0459356 L11.3213242,9.51146722 L11.3213242,9.51146722" id="Polygon-1" stroke="#9F9162" stroke-width="2" sketch:type="MSShapeGroup"></path>
    </g>
</svg>